<svg width="106" height="33" viewBox="0 0 106 33" fill="none" xmlns="http://www.w3.org/2000/svg">
<path d="M2 24.6595C2.26036 23.7916 3.49314 23.2184 4.16526 22.7964C8.07606 20.3408 12.2235 18.2214 16.5525 16.6027C27.07 12.6701 40.3054 10.8649 51.4988 12.9268C55.6055 13.6833 56.916 19.3755 54.7719 22.6453C50.5182 29.1321 41.0855 31.4126 33.8746 31.4574C30.4635 31.4786 25.1941 29.8155 26.2207 25.2134C27.1301 21.1365 31.6631 17.0553 34.6299 14.4878C39.5702 10.2126 46.4821 7.42896 52.7073 5.6254C65.2394 1.9946 78.8991 5.27534 90.8259 9.25094" stroke="#0857C3" stroke-width="3"/>
<path d="M91.2792 2C96.4971 2.2609 100.338 7.3832 103.717 10.7617C105.587 12.6321 92.0519 23.5616 89.4664 25.1129" stroke="#0857C3" stroke-width="3"/>
</svg>
