<svg width="184" height="200" viewBox="0 0 184 200" fill="none" xmlns="http://www.w3.org/2000/svg">
<path d="M94.8244 118.291L94.0992 119.207L93.374 121.039L90.7634 122.108H87.7176L92.9389 124.094L94.0992 122.872L90.0382 117.68H92.9389H95.6947L86.9924 119.97L85.687 120.581L86.9924 122.108L93.374 130.66L94.0992 133.562V137.837L92.9389 141.197L90.0382 143.64L87.7176 145.32L83.2214 147H79.1603L78 145.32V143.03V141.808M85.1069 116H91.9237H97L95.6947 122.872L92.9389 125.926L86.9924 124.552L85.1069 120.581L83.8015 117.222L88.1527 118.291L85.1069 116Z" stroke="#0857C3" stroke-width="6"/>
<path d="M93 128L93.7941 130.19L96.3353 135.98L98.0824 138.639L102.529 142.864L106.5 146.15L111.9 149.122L116.824 150.531L120 151" stroke="#0857C3" stroke-width="6"/>
<path d="M117.733 81.56L117.468 81.7189M117.468 81.7189L116 82.6V83.8L117.733 84.68L119.733 85H122L124 83.8V82.6L122.8 81.56L120.933 81H118.533L117.468 81.7189ZM117.468 83H120.4L120.933 83.8H118.533H121.467V83V82.6L120.933 81.7189L119.333 81.88L118 82.12L117.067 83.08L118.533 84.2" stroke="#0857C3" stroke-width="6"/>
<path d="M179.814 128L172.32 129.98L164.513 133.281L156.394 136.581L148.587 139.386L140 140.706L147.494 149.122L155.77 158.033L165.45 167.769L175.911 174.7L182 178" stroke="#0857C3" stroke-width="6"/>
<path d="M1 145.178L7.6426 144.089H16.1119H23.917L31.2238 143H37.0361L42.5162 144.089L47 146.889L43.5126 153.111L38.8628 157L33.2166 163.222L29.5632 168.356L25.9097 173.022L21.2599 177.067L18.769 181.733L15.2816 185" stroke="#0857C3" stroke-width="6"/>
<path d="M55.014 46L52.0701 39.35L50.271 34.2833L48.7991 28.2667L47 20.825V15.6L47.4907 9.425L48.7991 8L52.8879 9.425L58.4486 13.5417L64.1729 17.3417L70.2243 20.825L77.0935 25.2583L82 30.1667" stroke="#0857C3" stroke-width="6"/>
<path d="M132 31.5363L139.993 25.4879L148.455 19.2803L156.291 12.436L163.813 6.22837L169.612 4L173.06 7.6609L174 14.9827L171.022 23.737L168.201 31.5363L163.813 38.0623L160.993 44.4291L156.291 50" stroke="#0857C3" stroke-width="6"/>
<path d="M43.2898 65.242L46.7056 59.9395L49.6334 53.0302L54.1879 47.0851L58.7423 39.051L63.622 34.7127L71.7549 31.4991L79.3998 29.2495L88.0206 27H98.4307H105.75L116.486 29.2495L124.293 31.4991L133.239 34.7127L142.999 39.051L152.27 47.0851L158.289 56.5652L162.68 65.242L166.422 74.2401L168.699 83.5595L170 93.3611V103.323L168.699 113.607L166.422 124.533L162.68 136.263L158.289 145.582L152.27 157.473L145.927 165.185L140.071 172.255L133.239 179.325L124.293 185.11L114.696 190.733L103.148 193.465L94.3643 195.554L84.6048 197H77.4479L68.1764 195.554L60.2062 193.465L53.6999 190.733L46.7056 187.038L41.9885 182.86L36.7835 177.558L32.2291 172.255L29.3013 165.185L28 157.473V149.117V139.637V130.8V124.533L29.3013 116.66L30.6025 109.429L32.2291 102.038L33.693 94.4858L35.3196 86.7732L38.0848 79.2212L40.5246 71.9905L43.2898 65.242Z" stroke="#0857C3" stroke-width="6"/>
<path d="M63.7333 81.56L63.4685 81.7189M63.4685 81.7189L62 82.6V83.8L63.7333 84.68L65.7333 85H68L70 83.8V82.6L68.8 81.56L66.9333 81H64.5333L63.4685 81.7189ZM63.4685 83H66.4L66.9333 83.8H64.5333H67.4667V83V82.6L66.9333 81.7189L65.3333 81.88L64 82.12L63.0667 83.08L64.5333 84.2" stroke="#0857C3" stroke-width="6"/>
<path d="M43.2898 65.242L46.7056 59.9395L49.6334 53.0302L54.1879 47.0851L58.7423 39.051L63.622 34.7127L71.7549 31.4991L79.3998 29.2495L88.0206 27H98.4307H105.75L116.486 29.2495L124.293 31.4991L133.239 34.7127L142.999 39.051L152.27 47.0851L158.289 56.5652L162.68 65.242L166.422 74.2401L168.699 83.5595L170 93.3611V103.323L168.699 113.607L166.422 124.533L162.68 136.263L158.289 145.582L152.27 157.473L145.927 165.185L140.071 172.255L133.239 179.325L124.293 185.11L114.696 190.733L103.148 193.465L94.3643 195.554L84.6048 197H77.4479L68.1764 195.554L60.2062 193.465L53.6999 190.733L46.7056 187.038L41.9885 182.86L36.7835 177.558L32.2291 172.255L29.3013 165.185L28 157.473V149.117V139.637V130.8V124.533L29.3013 116.66L30.6025 109.429L32.2291 102.038L33.693 94.4858L35.3196 86.7732L38.0848 79.2212L40.5246 71.9905L43.2898 65.242Z" stroke="#0857C3" stroke-width="6"/>
<path d="M93 128V131" stroke="#0857C3" stroke-width="6"/>
</svg>
