<svg width="49" height="53" viewBox="0 0 49 53" fill="none" xmlns="http://www.w3.org/2000/svg">
<path d="M25.4275 31.5911L25.2366 31.8276L25.0458 32.3005L24.3588 32.5764H23.5573L24.9313 33.0887L25.2366 32.7734L24.1679 31.4335H24.9313H25.6565L23.3664 32.0246L23.0229 32.1823L23.3664 32.5764L25.0458 34.7833L25.2366 35.532V36.6355L24.9313 37.5025L24.1679 38.133L23.5573 38.5665L22.374 39H21.3053L21 38.5665V37.9754V37.6601M22.8702 31H24.6641H26L25.6565 32.7734L24.9313 33.5616L23.3664 33.2069L22.8702 32.1823L22.5267 31.3153L23.6718 31.5911L22.8702 31Z" stroke="#0857C3" stroke-width="2"/>
<path d="M25 34L25.2059 34.5714L25.8647 36.0816L26.3176 36.7755L27.4706 37.8776L28.5 38.7347L29.9 39.5102L31.1765 39.8776L32 40" stroke="#0857C3" stroke-width="2"/>
<path d="M31.4333 22.14L31.3671 22.1797M31.3671 22.1797L31 22.4V22.7L31.4333 22.92L31.9333 23H32.5L33 22.7V22.4L32.7 22.14L32.2333 22H31.6333L31.3671 22.1797ZM31.3671 22.5H32.1L32.2333 22.7H31.6333H32.3667V22.5V22.4L32.2333 22.1797L31.8333 22.22L31.5 22.28L31.2667 22.52L31.6333 22.8" stroke="#0857C3" stroke-width="2"/>
<path d="M47.4275 34L45.4647 34.5149L43.4201 35.3729L41.2937 36.231L39.2491 36.9604L37 37.3036L38.9628 39.4917L41.1301 41.8086L43.6654 44.3399L46.4052 46.1419L48 47" stroke="#0857C3" stroke-width="2"/>
<path d="M1 38.5704L2.73285 38.2852H4.94224H6.97834L8.88448 38H10.4007L11.8303 38.2852L13 39.0185L12.0903 40.6481L10.8773 41.6667L9.40433 43.2963L8.45126 44.6407L7.4982 45.863L6.2852 46.9222L5.63538 48.1444L4.72563 49" stroke="#0857C3" stroke-width="2"/>
<path d="M15.0607 13L14.3037 11.25L13.8411 9.91667L13.4626 8.33333L13 6.375V5L13.1262 3.375L13.4626 3L14.514 3.375L15.9439 4.45833L17.4159 5.45833L18.972 6.375L20.7383 7.54167L22 8.83333" stroke="#0857C3" stroke-width="2"/>
<path d="M35 9.18339L37.0933 7.60554L39.3097 5.98616L41.3619 4.20069L43.3321 2.58131L44.8507 2L45.7537 2.95502L46 4.86505L45.2201 7.14879L44.4813 9.18339L43.3321 10.8858L42.5933 12.5467L41.3619 14" stroke="#0857C3" stroke-width="2"/>
<path d="M11.984 17.8979L12.874 16.5255L13.6369 14.7372L14.8236 13.1985L16.0103 11.1191L17.2818 9.99622L19.4009 9.16446L21.3929 8.58223L23.6392 8H26.3517H28.2589L31.0561 8.58223L33.0905 9.16446L35.4215 9.99622L37.9645 11.1191L40.3803 13.1985L41.9485 15.6522L43.0928 17.8979L44.0676 20.2268L44.6609 22.6389L45 25.1758V27.7543L44.6609 30.4159L44.0676 33.2439L43.0928 36.2798L41.9485 38.6919L40.3803 41.7694L38.7274 43.7656L37.2016 45.5955L35.4215 47.4253L33.0905 48.9225L30.5899 50.3781L27.5808 51.0851L25.2921 51.6257L22.7491 52H20.8843L18.4685 51.6257L16.3918 51.0851L14.6964 50.3781L12.874 49.4215L11.6449 48.3403L10.2887 46.9679L9.10195 45.5955L8.33906 43.7656L8 41.7694V39.6068V37.1531V34.8658V33.2439L8.33906 31.206L8.67812 29.3346L9.10195 27.4215L9.48339 25.4669L9.90722 23.4707L10.6277 21.5161L11.2635 19.6446L11.984 17.8979Z" stroke="#0857C3" stroke-width="2"/>
<path d="M17.4333 22.14L17.3671 22.1797M17.3671 22.1797L17 22.4V22.7L17.4333 22.92L17.9333 23H18.5L19 22.7V22.4L18.7 22.14L18.2333 22H17.6333L17.3671 22.1797ZM17.3671 22.5H18.1L18.2333 22.7H17.6333H18.3667V22.5V22.4L18.2333 22.1797L17.8333 22.22L17.5 22.28L17.2667 22.52L17.6333 22.8" stroke="#0857C3" stroke-width="2"/>
<path d="M11.984 17.8979L12.874 16.5255L13.6369 14.7372L14.8236 13.1985L16.0103 11.1191L17.2818 9.99622L19.4009 9.16446L21.3929 8.58223L23.6392 8H26.3517H28.2589L31.0561 8.58223L33.0905 9.16446L35.4215 9.99622L37.9645 11.1191L40.3803 13.1985L41.9485 15.6522L43.0928 17.8979L44.0676 20.2268L44.6609 22.6389L45 25.1758V27.7543L44.6609 30.4159L44.0676 33.2439L43.0928 36.2798L41.9485 38.6919L40.3803 41.7694L38.7274 43.7656L37.2016 45.5955L35.4215 47.4253L33.0905 48.9225L30.5899 50.3781L27.5808 51.0851L25.2921 51.6257L22.7491 52H20.8843L18.4685 51.6257L16.3918 51.0851L14.6964 50.3781L12.874 49.4215L11.6449 48.3403L10.2887 46.9679L9.10195 45.5955L8.33906 43.7656L8 41.7694V39.6068V37.1531V34.8658V33.2439L8.33906 31.206L8.67812 29.3346L9.10195 27.4215L9.48339 25.4669L9.90722 23.4707L10.6277 21.5161L11.2635 19.6446L11.984 17.8979Z" stroke="#0857C3" stroke-width="2"/>
<path d="M25 34V35" stroke="#0857C3" stroke-width="2"/>
</svg>
