<svg width="558" height="623" viewBox="0 0 558 623" fill="none" xmlns="http://www.w3.org/2000/svg">
<path d="M182 246.5L174.5 126.5L353.5 115V241L182 246.5Z" stroke="#0857C3" stroke-width="6"/>
<path d="M233.5 120.5L241 103L253 95L268 90L284.5 95L297 108.5L302 116.5" stroke="#0857C3" stroke-width="6"/>
<path d="M251 92.5L208.5 28.5L216.5 19.5V6.5L206 4L195 6.5L189.5 12.5V23.5L195 28.5H206" stroke="#0857C3" stroke-width="6"/>
<path d="M288 96.5L336.5 31M336.5 31L334 23V9.5H341L354.5 13V23L350.5 34L336.5 31Z" stroke="#0857C3" stroke-width="6"/>
<path d="M414 306L425 304L431 311L435 326V342L428 350.5L416.5 354.5L411 357.5M411 357.5L407 453.5L393.5 459.5L334.5 467H294.5H246L185.5 459.5L163 450.5L157.5 419L155 389.5L151.5 360L148.5 318.5L151.5 294L173.5 286.5L207 283.5L274.5 276L344.5 271.5L388 276L407 280L414 301L411 357.5Z" stroke="#0857C3" stroke-width="6"/>
<path d="M146 319L132.5 321.5L130.5 335L134 354.5L136 366L146 371H151.5" stroke="#0857C3" stroke-width="6"/>
<path d="M130.5 340L107.5 349L80.5 346.5L55.5 332.5L41.5 314.5L32.5 291.5V265.5H48L63 251.5L69 231V212.5H48L51 235.5L41.5 244.5L32.5 235.5L28.5 212.5H8.5L4 226L8.5 244.5L16 258L30.5 265.5" stroke="#0857C3" stroke-width="6"/>
<path d="M435.5 322L501 309.5L514.5 295.5L518.5 272.5L523 250M523 250L539.5 240.5L553.5 190H526L521.5 207.5L518.5 226H506.5L501 211.5L496 194.5L481 207.5L487 226L501 243L523 250Z" stroke="#0857C3" stroke-width="6"/>
<path d="M201 462V478L210.5 489.5L233.5 495L253.5 493L263.5 483V466" stroke="#0857C3" stroke-width="6"/>
<path d="M321 469V485.5L331.5 490.5H346L372 489L376.5 477L375 461.5" stroke="#0857C3" stroke-width="6"/>
<path d="M221 496L224.5 577M224.5 577L205.5 590L199.5 611.5V619.5L258.5 615L256 602.5L250 590L242.5 580L224.5 577Z" stroke="#0857C3" stroke-width="6"/>
<path d="M238.5 492.5L243.5 580.5" stroke="#0857C3" stroke-width="6"/>
<path d="M354 493L359 565L342 574L337 592V610L387 604.5L382.5 588.5L374.5 567.5L361 565" stroke="#0857C3" stroke-width="6"/>
<path d="M367.5 491.5L375 565" stroke="#0857C3" stroke-width="6"/>
<path d="M199 421L190.5 322L309.5 305H348.5L361 313L365 412L199 421Z" stroke="#0857C3" stroke-width="6"/>
<path d="M219 332H228.5L242 330.5L244.5 341L240.5 349L231 355L221 352L219 341V332Z" stroke="#0857C3" stroke-width="6"/>
<path d="M274 360L268.5 326.5H296L302 354.5L274 360Z" stroke="#0857C3" stroke-width="6"/>
<path d="M319 355V320H342L347 355H319Z" stroke="#0857C3" stroke-width="6"/>
<path d="M221 383.5L251 378.5H269L272 387.5L253.5 394H234.5L223.5 391.5L221 383.5Z" stroke="#0857C3" stroke-width="6"/>
<path d="M288.5 388L291.5 376H300.5L305 384V393L294 399L288.5 388Z" stroke="#0857C3" stroke-width="6"/>
<path d="M315 373L310 382L315 395.5L322.5 390.5V375.5L315 371" stroke="#0857C3" stroke-width="6"/>
<path d="M331.5 380L337.5 370.5L345 375.5V386L342 393.5H331.5V380Z" stroke="#0857C3" stroke-width="6"/>
<path d="M260 443H263.5L263 441H260" stroke="#0857C3" stroke-width="6"/>
<path d="M310 444H313.5L313 442H310" stroke="#0857C3" stroke-width="6"/>
<path d="M356 436H359.5L359 434H356" stroke="#0857C3" stroke-width="6"/>
<path d="M221 185H224.5L224 183H221" stroke="#0857C3" stroke-width="6"/>
<path d="M306 180H309.5L309 178H306" stroke="#0857C3" stroke-width="6"/>
<path d="M213 446H216.5L216 444H213" stroke="#0857C3" stroke-width="6"/>
<path d="M247 221.5L258.5 219L280.5 221.5L288 223L284.5 232.5L264.5 235L249 228.5L247 221.5Z" stroke="#0857C3" stroke-width="6"/>
<path d="M198.5 174L210.5 151.5L229 157.5L243.5 164.5L250.5 183L246.5 200.5L227.5 216.5L213 210.5L201 196.5L198.5 174Z" stroke="#0857C3" stroke-width="6"/>
<path d="M291 156.5L305 155L314 151.5L320.5 156.5L328.5 169.5V185.5L320.5 197L306.5 205L293 197L284 185.5L287 169.5L291 156.5Z" stroke="#0857C3" stroke-width="6"/>
<path d="M254.5 246V278" stroke="#0857C3" stroke-width="6"/>
<path d="M274.5 244.5L277 275" stroke="#0857C3" stroke-width="6"/>
</svg>
